<svg width="33" height="33" viewBox="0 0 33 33" fill="none" xmlns="http://www.w3.org/2000/svg">
<path d="M18.9695 5.68717C17.6187 4.29207 15.3813 4.29206 14.0304 5.68716L7.43253 12.5013C7.05361 12.8926 6.79898 13.3874 6.70072 13.9232C5.89943 18.2929 5.84028 22.7664 6.52576 27.1558L6.76846 28.7098C6.84511 29.2006 7.26787 29.5625 7.76467 29.5625H12.375C12.7547 29.5625 13.0625 29.2547 13.0625 28.875V19.25H19.9375V28.875C19.9375 29.2547 20.2453 29.5625 20.625 29.5625H25.2352C25.732 29.5625 26.1548 29.2006 26.2315 28.7098L26.4742 27.1558C27.1596 22.7664 27.1005 18.2929 26.2992 13.9232C26.2009 13.3874 25.9463 12.8926 25.5674 12.5013L18.9695 5.68717Z" fill="#3DA9F2"/>
</svg>
