<svg width="33" height="33" viewBox="0 0 33 33" fill="none" xmlns="http://www.w3.org/2000/svg">
<path d="M11.55 7.21875C7.72632 7.21875 4.46875 10.0778 4.46875 13.791C4.46875 16.3525 5.66823 18.5091 7.25792 20.2956C8.84216 22.0759 10.8861 23.5703 12.7338 24.821L15.9219 26.979C16.2711 27.2153 16.7289 27.2153 17.0781 26.979L20.2662 24.821C22.1139 23.5703 24.1578 22.0759 25.7421 20.2956C27.3318 18.5091 28.5312 16.3525 28.5312 13.791C28.5312 10.0778 25.2737 7.21875 21.45 7.21875C19.479 7.21875 17.7446 8.14294 16.5 9.33877C15.2554 8.14294 13.521 7.21875 11.55 7.21875Z" fill="#3DA9F2"/>
</svg>
