<svg width="33" height="33" viewBox="0 0 33 33" fill="none" xmlns="http://www.w3.org/2000/svg">
<path fill-rule="evenodd" clip-rule="evenodd" d="M11.3438 6.875C11.3438 4.78667 13.0367 3.09375 15.125 3.09375H17.875C19.9633 3.09375 21.6562 4.78667 21.6562 6.875V9.625C21.6562 10.1945 21.1945 10.6562 20.625 10.6562H12.375C11.8055 10.6562 11.3438 10.1945 11.3438 9.625V6.875ZM15.125 5.15625C14.1758 5.15625 13.4062 5.92576 13.4062 6.875V8.59375H19.5938V6.875C19.5938 5.92576 18.8242 5.15625 17.875 5.15625H15.125Z" fill="#3DA9F2"/>
<path fill-rule="evenodd" clip-rule="evenodd" d="M8.91953 6.77706C9.09336 6.69372 9.28636 6.82636 9.28601 7.01914L9.28125 9.62501C9.28125 11.3336 10.6664 12.7188 12.375 12.7188H20.625C22.3336 12.7188 23.7188 11.3336 23.7188 9.62501V7.01836C23.7188 6.8258 23.9116 6.69351 24.0852 6.77675C25.7148 7.55795 26.8125 9.22183 26.8125 11.1175V25.5405C26.8125 27.8928 25.0603 29.8767 22.726 30.1674C18.5913 30.6824 14.4087 30.6824 10.274 30.1674C7.93968 29.8767 6.1875 27.8928 6.1875 25.5405V11.1175C6.1875 9.22208 7.28972 7.55839 8.91953 6.77706ZM20.625 16.5C21.1945 16.5 21.6562 16.9617 21.6562 17.5312C21.6562 18.1008 21.1945 18.5625 20.625 18.5625H12.375C11.8055 18.5625 11.3438 18.1008 11.3438 17.5312C11.3438 16.9617 11.8055 16.5 12.375 16.5H20.625ZM19.25 20.625C19.8195 20.625 20.2812 21.0867 20.2812 21.6562C20.2812 22.2258 19.8195 22.6875 19.25 22.6875H12.375C11.8055 22.6875 11.3438 22.2258 11.3438 21.6562C11.3438 21.0867 11.8055 20.625 12.375 20.625H19.25Z" fill="#3DA9F2"/>
</svg>
