<svg width="33" height="33" viewBox="0 0 33 33" fill="none" xmlns="http://www.w3.org/2000/svg">
<path d="M8.83966 3.31787C9.21415 2.88877 9.16989 2.23732 8.74078 1.86282C8.31168 1.48832 7.66023 1.53259 7.28573 1.9617L5.50949 3.99693C4.50195 5.15139 3.93238 6.62335 3.90043 8.15531L3.82249 11.8921C3.81062 12.4615 4.2626 12.9327 4.83202 12.9446C5.40144 12.9565 5.87267 12.5045 5.88455 11.9351L5.96248 8.19831C5.98434 7.15013 6.37404 6.143 7.06342 5.35311L8.83966 3.31787Z" fill="#3DA9F2"/>
<path fill-rule="evenodd" clip-rule="evenodd" d="M8.57593 10.5886C8.76692 7.53506 11.2991 5.1563 14.3586 5.1563H15.125V4.12505C15.125 3.36566 15.7406 2.75005 16.5 2.75005C17.2594 2.75005 17.875 3.36566 17.875 4.12505V5.1563H18.6415C21.7009 5.1563 24.2331 7.53506 24.4241 10.5886L24.728 15.4471C24.8439 17.2995 25.4658 19.0846 26.526 20.608C27.4839 21.9844 26.6311 23.8855 24.9661 24.0853L20.2813 24.6474V26.125C20.2813 28.2134 18.5884 29.9063 16.5 29.9063C14.4117 29.9063 12.7188 28.2134 12.7188 26.125V24.6474L8.03399 24.0853C6.36896 23.8855 5.51615 21.9844 6.47409 20.608C7.5343 19.0846 8.1562 17.2995 8.27206 15.4471L8.57593 10.5886ZM14.7813 26.125C14.7813 27.0743 15.5508 27.8438 16.5 27.8438C17.4493 27.8438 18.2188 27.0743 18.2188 26.125V25.0938H14.7813V26.125Z" fill="#3DA9F2"/>
<path d="M24.2593 1.86282C23.8302 2.23732 23.7859 2.88877 24.1604 3.31788L25.9367 5.35311C26.626 6.143 27.0157 7.15013 27.0376 8.19831L27.1155 11.9351C27.1274 12.5045 27.5986 12.9565 28.1681 12.9446C28.7375 12.9327 29.1895 12.4615 29.1776 11.8921L29.0996 8.15531C29.0677 6.62335 28.4981 5.15139 27.4906 3.99693L25.7143 1.9617C25.3398 1.53259 24.6884 1.48833 24.2593 1.86282Z" fill="#3DA9F2"/>
</svg>
