<svg width="33" height="33" viewBox="0 0 33 33" fill="none" xmlns="http://www.w3.org/2000/svg">
<path d="M16.5 5.15625C13.6523 5.15625 11.3438 7.46478 11.3438 10.3125C11.3438 13.1602 13.6523 15.4688 16.5 15.4688C19.3477 15.4688 21.6562 13.1602 21.6562 10.3125C21.6562 7.46478 19.3477 5.15625 16.5 5.15625Z" fill="#3DA9F2"/>
<path d="M11 18.2188C8.15228 18.2188 5.84375 20.5273 5.84375 23.375V25.0089C5.84375 26.0446 6.59434 26.9277 7.6165 27.0945C13.4999 28.0551 19.5001 28.0551 25.3835 27.0945C26.4057 26.9277 27.1562 26.0446 27.1562 25.0089V23.375C27.1562 20.5273 24.8477 18.2188 22 18.2188H21.5313C21.2776 18.2188 21.0255 18.2589 20.7844 18.3376L19.5943 18.7262C17.5837 19.3827 15.4163 19.3827 13.4057 18.7262L12.2156 18.3376C11.9745 18.2589 11.7224 18.2188 11.4687 18.2188H11Z" fill="#3DA9F2"/>
</svg>
