<svg width="33" height="33" viewBox="0 0 33 33" fill="none" xmlns="http://www.w3.org/2000/svg">
<path fill-rule="evenodd" clip-rule="evenodd" d="M18.642 7.6096C17.4449 6.46098 15.555 6.46098 14.358 7.6096L7.9966 13.7137C7.84074 13.8632 7.7359 14.0581 7.69694 14.2705C6.93501 18.4256 6.87877 22.6793 7.53058 26.8531L7.6853 27.8438H11.7779V19.3032C11.7779 18.7336 12.2396 18.2719 12.8092 18.2719H20.1908C20.7603 18.2719 21.222 18.7336 21.222 19.3032V27.8438H25.3146L25.4693 26.8531C26.1212 22.6793 26.0649 18.4256 25.303 14.2705C25.264 14.0581 25.1592 13.8632 25.0033 13.7137L18.642 7.6096ZM12.93 6.12141C14.925 4.20705 18.0749 4.20705 20.07 6.12141L26.4313 12.2255C26.8996 12.6748 27.2146 13.2602 27.3317 13.8985C28.1354 18.2815 28.1947 22.7686 27.5072 27.1713L27.2586 28.7628C27.1558 29.421 26.5889 29.9063 25.9228 29.9063H20.1908C19.6212 29.9063 19.1595 29.4445 19.1595 28.875V20.3344H13.8404V28.875C13.8404 29.4445 13.3787 29.9063 12.8092 29.9063H7.07717C6.41101 29.9063 5.84412 29.421 5.74133 28.7628L5.49278 27.1713C4.80521 22.7686 4.86454 18.2815 5.66827 13.8985C5.78533 13.2602 6.10032 12.6748 6.5686 12.2255L12.93 6.12141Z" fill="#3DA9F2"/>
</svg>
