<svg width="33" height="33" viewBox="0 0 33 33" fill="none" xmlns="http://www.w3.org/2000/svg">
<path fill-rule="evenodd" clip-rule="evenodd" d="M4.46875 13.791C4.46875 10.0778 7.72632 7.21875 11.55 7.21875C13.521 7.21875 15.2554 8.14294 16.5 9.33877C17.7446 8.14294 19.479 7.21875 21.45 7.21875C25.2737 7.21875 28.5312 10.0778 28.5312 13.791C28.5312 16.3345 27.4465 18.5714 25.9437 20.4621C24.4436 22.3496 22.4812 23.9515 20.6023 25.2532C19.8846 25.7504 19.1586 26.209 18.4941 26.5474C17.8702 26.8652 17.1528 27.1562 16.5 27.1562C15.8472 27.1562 15.1298 26.8652 14.5059 26.5474C13.8414 26.209 13.1154 25.7504 12.3977 25.2532C10.5188 23.9515 8.55645 22.3496 7.05625 20.4621C5.55346 18.5714 4.46875 16.3345 4.46875 13.791ZM11.55 9.28125C8.69103 9.28125 6.53125 11.3838 6.53125 13.791C6.53125 15.7208 7.35046 17.5175 8.67088 19.1788C9.99389 20.8434 11.774 22.312 13.5723 23.5578C14.2527 24.0292 14.8936 24.4303 15.4419 24.7095C16.0306 25.0094 16.3717 25.0938 16.5 25.0938C16.6283 25.0938 16.9694 25.0094 17.5581 24.7095C18.1064 24.4303 18.7473 24.0292 19.4277 23.5578C21.226 22.312 23.0061 20.8434 24.3291 19.1788C25.6495 17.5175 26.4688 15.7208 26.4688 13.791C26.4688 11.3838 24.309 9.28125 21.45 9.28125C19.808 9.28125 18.2748 10.2622 17.3175 11.5073C17.1223 11.7611 16.8202 11.9099 16.5 11.9099C16.1798 11.9099 15.8777 11.7611 15.6825 11.5073C14.7252 10.2622 13.192 9.28125 11.55 9.28125Z" fill="#3DA9F2"/>
</svg>
