<svg width="33" height="33" viewBox="0 0 33 33" fill="none" xmlns="http://www.w3.org/2000/svg">
<path fill-rule="evenodd" clip-rule="evenodd" d="M21.5189 5.86149L22.6372 6.00077C25.2186 6.32226 27.1562 8.51619 27.1562 11.1175V25.5404C27.1562 28.0662 25.2749 30.1964 22.7685 30.5085C18.6056 31.027 14.3944 31.027 10.2315 30.5085C7.7251 30.1964 5.84375 28.0662 5.84375 25.5404V11.1175C5.84375 8.51619 7.78139 6.32226 10.3628 6.00077L11.4811 5.86149C11.9241 4.26533 13.3877 3.09375 15.125 3.09375H17.875C19.6123 3.09375 21.0759 4.26533 21.5189 5.86149ZM11.3438 7.95703L10.6177 8.04746C9.06883 8.24036 7.90625 9.55671 7.90625 11.1175V25.5404C7.90625 27.0257 9.01255 28.2783 10.4864 28.4618C14.48 28.9592 18.52 28.9592 22.5136 28.4618C23.9875 28.2783 25.0938 27.0257 25.0938 25.5404V11.1175C25.0938 9.55671 23.9312 8.24035 22.3823 8.04746L21.6562 7.95703V9.625C21.6562 10.1945 21.1945 10.6562 20.625 10.6562H12.375C11.8055 10.6562 11.3438 10.1945 11.3438 9.625V7.95703ZM13.4062 6.875C13.4062 5.92576 14.1758 5.15625 15.125 5.15625H17.875C18.8242 5.15625 19.5938 5.92576 19.5938 6.875V8.59375H13.4062V6.875Z" fill="#3DA9F2"/>
<path d="M21.6562 16.1562C21.6562 15.5867 21.1945 15.125 20.625 15.125H12.375C11.8055 15.125 11.3438 15.5867 11.3438 16.1562C11.3438 16.7258 11.8055 17.1875 12.375 17.1875H20.625C21.1945 17.1875 21.6562 16.7258 21.6562 16.1562Z" fill="#3DA9F2"/>
<path d="M20.2812 20.2812C20.2812 19.7117 19.8195 19.25 19.25 19.25H12.375C11.8055 19.25 11.3438 19.7117 11.3438 20.2812C11.3438 20.8508 11.8055 21.3125 12.375 21.3125H19.25C19.8195 21.3125 20.2812 20.8508 20.2812 20.2812Z" fill="#3DA9F2"/>
</svg>
