<svg width="33" height="33" viewBox="0 0 33 33" fill="none" xmlns="http://www.w3.org/2000/svg">
<path d="M8.83966 3.31791C9.21415 2.8888 9.16989 2.23735 8.74078 1.86285C8.31168 1.48835 7.66023 1.53262 7.28573 1.96173L5.50949 3.99696C4.50195 5.15142 3.93238 6.62338 3.90043 8.15534L3.82249 11.8921C3.81062 12.4615 4.2626 12.9328 4.83202 12.9446C5.40144 12.9565 5.87267 12.5045 5.88455 11.9351L5.96248 8.19834C5.98434 7.15016 6.37404 6.14303 7.06342 5.35314L8.83966 3.31791Z" fill="#3DA9F2"/>
<path fill-rule="evenodd" clip-rule="evenodd" d="M8.57593 10.5886C8.76692 7.53509 11.2991 5.15633 14.3586 5.15633H15.125V4.12508C15.125 3.36569 15.7406 2.75008 16.5 2.75008C17.2594 2.75008 17.875 3.36569 17.875 4.12508V5.15633H18.6415C21.7009 5.15633 24.2331 7.53509 24.4241 10.5886L24.728 15.4471C24.8439 17.2995 25.4658 19.0846 26.526 20.608C27.4839 21.9844 26.6311 23.8855 24.9661 24.0853L20.2813 24.6475V26.1251C20.2813 28.2134 18.5884 29.9063 16.5 29.9063C14.4117 29.9063 12.7188 28.2134 12.7188 26.1251V24.6475L8.03399 24.0853C6.36896 23.8855 5.51615 21.9844 6.47409 20.608C7.5343 19.0846 8.1562 17.2995 8.27206 15.4471L8.57593 10.5886ZM14.3586 7.21883C12.3882 7.21883 10.7574 8.75081 10.6344 10.7173L10.3305 15.5758C10.1911 17.8049 9.44276 19.953 8.16697 21.7862C8.09774 21.8856 8.15937 22.023 8.27972 22.0375L13.419 22.6542C15.4657 22.8998 17.5344 22.8998 19.5811 22.6542L24.7203 22.0375C24.8407 22.0231 24.9023 21.8856 24.8331 21.7862C23.5573 19.953 22.8089 17.8049 22.6695 15.5758L22.3656 10.7173C22.2426 8.75081 20.6118 7.21883 18.6415 7.21883H14.3586ZM16.5 27.8438C15.5508 27.8438 14.7813 27.0743 14.7813 26.1251V25.0938H18.2188V26.1251C18.2188 27.0743 17.4493 27.8438 16.5 27.8438Z" fill="#3DA9F2"/>
<path d="M24.2593 1.86285C23.8302 2.23735 23.7859 2.8888 24.1604 3.31791L25.9367 5.35314C26.626 6.14303 27.0157 7.15016 27.0376 8.19834L27.1155 11.9351C27.1274 12.5045 27.5986 12.9565 28.1681 12.9446C28.7375 12.9328 29.1895 12.4615 29.1776 11.8921L29.0996 8.15534C29.0677 6.62338 28.4981 5.15142 27.4906 3.99696L25.7143 1.96173C25.3398 1.53262 24.6884 1.48835 24.2593 1.86285Z" fill="#3DA9F2"/>
</svg>
