<svg width="33" height="33" viewBox="0 0 33 33" fill="none" xmlns="http://www.w3.org/2000/svg">
<path fill-rule="evenodd" clip-rule="evenodd" d="M10.6562 10.3125C10.6562 7.08509 13.2726 4.46875 16.5 4.46875C19.7274 4.46875 22.3438 7.08509 22.3438 10.3125C22.3438 13.5399 19.7274 16.1562 16.5 16.1562C13.2726 16.1562 10.6562 13.5399 10.6562 10.3125ZM16.5 6.53125C14.4117 6.53125 12.7188 8.22417 12.7188 10.3125C12.7188 12.4008 14.4117 14.0938 16.5 14.0938C18.5883 14.0938 20.2812 12.4008 20.2812 10.3125C20.2812 8.22417 18.5883 6.53125 16.5 6.53125Z" fill="#3DA9F2"/>
<path fill-rule="evenodd" clip-rule="evenodd" d="M11 20.2812C9.29137 20.2812 7.90625 21.6664 7.90625 23.375V25.0089C7.90625 25.0338 7.92428 25.055 7.94883 25.059C13.6121 25.9836 19.3879 25.9836 25.0512 25.059C25.0757 25.055 25.0938 25.0338 25.0938 25.0089V23.375C25.0938 21.6664 23.7086 20.2812 22 20.2812H21.5313C21.4951 20.2812 21.4591 20.287 21.4246 20.2982L20.2345 20.6868C17.8079 21.4792 15.1921 21.4792 12.7655 20.6868L11.5754 20.2982C11.5409 20.287 11.5049 20.2812 11.4687 20.2812H11ZM5.84375 23.375C5.84375 20.5273 8.15228 18.2188 11 18.2188H11.4687C11.7224 18.2188 11.9745 18.2589 12.2156 18.3376L13.4057 18.7262C15.4163 19.3827 17.5837 19.3827 19.5943 18.7262L20.7844 18.3376C21.0255 18.2589 21.2776 18.2188 21.5313 18.2188H22C24.8477 18.2188 27.1562 20.5273 27.1562 23.375V25.0089C27.1562 26.0446 26.4057 26.9277 25.3835 27.0945C19.5001 28.0551 13.4999 28.0551 7.6165 27.0945C6.59434 26.9277 5.84375 26.0446 5.84375 25.0089V23.375Z" fill="#3DA9F2"/>
</svg>
