<svg width="16" height="15" viewBox="0 0 16 15" fill="none" xmlns="http://www.w3.org/2000/svg">
<path d="M8.45728 0.373585C8.16824 -0.124527 7.44891 -0.124529 7.15988 0.373585L5.12434 3.88157C4.98156 4.12763 4.73477 4.29555 4.45347 4.33803L0.638738 4.9142C-0.00197415 5.01098 -0.226719 5.81993 0.27226 6.23333L3.11408 8.58775C3.37713 8.80569 3.50082 9.14946 3.43692 9.48504L2.69355 13.3889C2.57603 14.006 3.22388 14.4855 3.77974 14.1928L7.37179 12.3015C7.64519 12.1575 7.97196 12.1575 8.24536 12.3015L11.8374 14.1928C12.3933 14.4855 13.0411 14.006 12.9236 13.3889L12.1802 9.48504C12.1163 9.14946 12.24 8.80569 12.5031 8.58775L15.3449 6.23333C15.8439 5.81993 15.6191 5.01098 14.9784 4.9142L11.1637 4.33804C10.8824 4.29555 10.6356 4.12763 10.4928 3.88157L8.45728 0.373585Z" fill="#FFC810"/>
</svg>
